<?xml version="1.0" standalone="no"?>
<!DOCTYPE svg PUBLIC "-//W3C//DTD SVG 20010904//EN"
 "http://www.w3.org/TR/2001/REC-SVG-20010904/DTD/svg10.dtd">
<svg version="1.0" xmlns="http://www.w3.org/2000/svg"
 width="320.000000pt" height="64.000000pt" viewBox="0 0 320.000000 64.000000"
 preserveAspectRatio="xMidYMid meet">
<metadata>
Created by potrace 1.13, written by Peter Selinger 2001-2015
</metadata>
<g transform="translate(0.000000,64.000000) scale(0.100000,-0.100000)"
fill="#000000" stroke="none">
<path d="M0 320 l0 -320 1600 0 1600 0 0 320 0 320 -1600 0 -1600 0 0 -320z
m509 155 c13 -13 -19 -25 -63 -25 -94 0 -103 -54 -14 -76 58 -15 85 -30 98
-54 13 -24 -1 -63 -32 -84 -36 -26 -184 -19 -175 8 3 7 26 10 62 8 39 -2 65 3
81 13 45 29 26 56 -49 70 -55 11 -87 40 -87 80 0 37 16 54 63 65 28 7 106 3
116 -5z m545 4 c31 -14 49 -61 36 -93 -14 -39 -49 -56 -112 -56 l-58 0 0 -60
c0 -53 -2 -60 -20 -60 -19 0 -20 7 -20 140 l0 140 75 0 c41 0 85 -5 99 -11z
m294 -1 c-3 -9 -32 -14 -86 -16 l-82 -3 0 -44 0 -45 81 0 c60 0 80 -3 77 -12
-3 -9 -31 -14 -81 -16 l-77 -3 0 -49 0 -49 87 -3 c58 -2 88 -7 91 -15 3 -10
-23 -13 -107 -13 l-111 0 0 140 0 140 106 0 c80 0 105 -3 102 -12z m251 -1
c35 -18 47 -61 26 -94 -9 -14 -26 -28 -36 -30 -23 -6 -24 -16 -4 -33 8 -7 28
-34 45 -61 l30 -49 -24 0 c-18 0 -31 11 -49 43 -40 67 -64 87 -102 87 l-35 0
0 -65 c0 -58 -2 -65 -20 -65 -19 0 -20 7 -20 140 l0 140 83 0 c45 0 93 -6 106
-13z m251 -74 c0 75 0 77 25 77 l25 0 0 -137 -1 -138 -80 83 c-44 45 -82 82
-84 82 -3 0 -5 -34 -5 -75 0 -68 -2 -75 -20 -75 -19 0 -20 7 -20 134 l0 133
80 -81 80 -81 0 78z m286 61 c82 -54 80 -175 -5 -231 -87 -59 -211 7 -211 111
0 112 123 180 216 120z m-1357 3 c42 -21 63 -60 63 -117 0 -59 -21 -96 -66
-118 -37 -19 -118 -17 -156 3 -76 39 -80 181 -6 226 36 22 128 26 165 6z
m1480 -67 c19 -44 35 -80 36 -80 2 0 17 36 35 80 28 70 35 80 57 80 16 0 23
-4 20 -12 -38 -96 -110 -258 -113 -256 -5 6 -101 223 -109 247 -5 17 -2 21 18
21 20 0 28 -12 56 -80z m251 -33 c5 -117 10 -127 65 -127 55 0 60 10 65 127 4
92 8 108 23 111 15 3 17 -6 17 -91 0 -142 -20 -178 -99 -179 -92 -1 -111 28
-111 172 0 91 2 101 18 98 14 -3 18 -19 22 -111z m402 83 c38 -46 13 -69 -28
-25 -27 29 -74 33 -98 9 -31 -30 -16 -47 57 -68 95 -28 124 -80 72 -131 -35
-36 -125 -36 -160 0 -28 27 -33 65 -10 65 8 0 15 -4 15 -10 0 -24 41 -50 78
-50 43 0 62 14 62 46 0 22 -13 30 -93 54 -48 15 -67 35 -67 70 0 19 9 36 28
50 36 29 117 24 144 -10z m-2052 -335 l0 -25 -350 0 -350 0 0 25 0 25 350 0
350 0 0 -25z"/>
<path d="M2023 440 c-31 -13 -57 -57 -57 -98 0 -26 8 -41 32 -63 43 -39 84
-38 123 0 49 50 32 138 -32 160 -37 13 -37 13 -66 1z" fill="#B9B0D5"/>
<path d="M661 439 c-37 -15 -50 -39 -51 -91 0 -57 21 -84 74 -93 42 -8 85 10
104 45 17 32 9 98 -15 121 -23 22 -80 32 -112 18z" fill="#B9B0D5"/>
</g>
</svg>
